<svg width="66" height="67" viewBox="0 0 66 64" fill="none" xmlns="http://www.w3.org/2000/svg">
<path d="M62.7062 56.675V42.0625C62.6926 34.788 60.0141 27.7707 55.1772 22.3372C50.3403 16.9038 43.6802 13.4308 36.4562 12.575C37.6361 11.8426 38.5451 10.7457 39.0456 9.45042C39.5462 8.15511 39.6109 6.73197 39.2302 5.39655C38.8494 4.06113 38.0438 2.88617 36.9354 2.04963C35.827 1.2131 34.4762 0.760559 33.0875 0.760559C31.6989 0.760559 30.348 1.2131 29.2396 2.04963C28.1312 2.88617 27.3256 4.06113 26.9448 5.39655C26.5641 6.73197 26.6288 8.15511 27.1294 9.45042C27.6299 10.7457 28.5389 11.8426 29.7188 12.575C22.4948 13.4308 15.8347 16.9038 10.9978 22.3372C6.16092 27.7707 3.48242 34.788 3.46875 42.0625V56.675H0.1875V63.2375H65.8125V56.675H62.7062ZM9.85625 42.0625C9.85625 35.9244 12.2946 30.0377 16.6349 25.6974C20.9752 21.3571 26.8619 18.9187 33 18.9187C39.1381 18.9187 45.0248 21.3571 49.3651 25.6974C53.7054 30.0377 56.1437 35.9244 56.1437 42.0625V56.675H9.85625V42.0625Z" fill="#F36805"/>
<path d="M28.7562 42.7625L22.7187 36.6812L17.9062 41.4937L28.7562 52.3437L48.0937 33.0062L43.2812 28.2375L28.7562 42.7625Z" fill="#F36805"/>
</svg>
