<svg width="66" height="67" viewBox="0 0 66 56" fill="none" xmlns="http://www.w3.org/2000/svg">
<path d="M62.5312 16.875C62.7093 12.7114 61.23 8.64691 58.4174 5.57182C55.6047 2.49673 51.6879 0.661731 47.525 0.468745C45.0537 0.475005 42.6265 1.12327 40.4812 2.34999C38.2614 1.09878 35.7462 0.467062 33.1987 0.520938C30.6511 0.574813 28.1649 1.3123 26 2.65624C23.7541 1.21884 21.1414 0.45935 18.475 0.468745C14.312 0.661731 10.3953 2.49673 7.58257 5.57182C4.76989 8.64691 3.2906 12.7114 3.46871 16.875V24.5312H62.5312V16.875ZM55.9687 17.9687H10.0312V16.875C9.86181 14.4536 10.6529 12.0629 12.2333 10.2206C13.8136 8.37819 16.056 7.23239 18.475 7.03124C20.4376 7.03386 22.3215 7.80312 23.725 9.17499L26 11.3625L28.275 9.17499C29.6135 7.88113 31.3862 7.13279 33.247 7.07615C35.1078 7.01952 36.9228 7.65868 38.3375 8.86874L40.4375 10.7062L42.5812 8.86874C43.9652 7.69987 45.7135 7.05008 47.525 7.03124C49.9439 7.23239 52.1863 8.37819 53.7667 10.2206C55.347 12.0629 56.1381 14.4536 55.9687 16.875V17.9687ZM65.0687 26.7187V33.2812C60.9125 33.2812 60.6937 33.8937 60.3437 34.725C59.9185 36.0946 59.1129 37.3152 58.0208 38.2447C56.9287 39.1742 55.5949 39.7742 54.175 39.975C52.5985 40.3697 50.9483 40.3644 49.3744 39.9594C47.8005 39.5545 46.3527 38.7628 45.1625 37.6562C44.025 36.7812 43.5437 36.4312 42.5375 36.4312H42.0562C42.0562 36.4312 42.0562 36.4312 42.0562 36.7375C41.1853 38.2939 39.8596 39.5469 38.2566 40.3288C36.6537 41.1108 34.8501 41.3842 33.0875 41.1125C31.3591 41.3377 29.6029 41.0415 28.0439 40.2621C26.485 39.4826 25.1943 38.2553 24.3375 36.7375C24.3458 36.621 24.3458 36.504 24.3375 36.3875H23.4625C22.4562 36.3875 21.975 36.7375 20.8375 37.6125C19.6516 38.7259 18.2039 39.5222 16.6285 39.9275C15.0532 40.3328 13.401 40.3341 11.825 39.9312C10.405 39.7305 9.07127 39.1304 7.97915 38.2009C6.88702 37.2715 6.08144 36.0508 5.65621 34.6812C5.30621 33.85 5.08746 33.2375 0.931213 33.2375V26.7187C8.10621 26.7187 10.3812 28.8625 11.7375 32.3625C12.1312 33.325 12.1312 33.325 13.225 33.5875C14.3187 33.85 15.4562 33.5875 16.7687 32.4937C18.6322 30.8926 21.0056 30.0084 23.4625 30C24.7482 29.914 26.0304 30.2136 27.145 30.8605C28.2595 31.5074 29.1556 32.4721 29.7187 33.6312C30.1562 34.4625 30.4187 34.8562 33 34.8562C35.5812 34.8562 35.8437 34.4625 36.325 33.6312C36.8709 32.468 37.7572 31.498 38.8665 30.8495C39.9759 30.2011 41.256 29.9048 42.5375 30C45.0112 30.0447 47.3865 30.9763 49.2312 32.625C50.5437 33.675 51.0687 34.0687 52.775 33.7187C54.4812 33.3687 53.8687 33.4562 54.2625 32.4937C55.6187 28.8625 57.8937 26.7187 65.0687 26.7187ZM55.9687 43.125H62.5312V47.5C62.5197 49.527 61.7094 51.4677 60.2761 52.9011C58.8427 54.3344 56.902 55.1448 54.875 55.1562H11.125C9.09794 55.1448 7.15721 54.3344 5.72387 52.9011C4.29052 51.4677 3.4802 49.527 3.46871 47.5V43.125H10.0312V47.5C10.0312 47.7901 10.1464 48.0683 10.3516 48.2734C10.5567 48.4785 10.8349 48.5937 11.125 48.5937H54.875C55.165 48.5937 55.4432 48.4785 55.6484 48.2734C55.8535 48.0683 55.9687 47.7901 55.9687 47.5V43.125Z" fill="#F36805"/>
</svg>
