<svg xmlns="http://www.w3.org/2000/svg" width="151" height="35">
    <path fill="#FF8000" fill-rule="evenodd" d="M62.5 17.7c-.4-.5-1-.9-1.6-1.2-.7-.3-1.4-.4-2.1-.4-.8 0-1.6.1-2.4.4-.7.3-1.4.7-1.9 1.2s-1 1.1-1.3 1.8c-.6 1.7-.6 3.7 0 5.4.3.7.7 1.3 1.3 1.8s1.2.9 1.9 1.2c.8.3 1.6.4 2.4.4.9 0 1.8-.2 2.6-.6.6-.3 1.2-.7 1.7-1.2.2-.2.2-.5 0-.7l-1.5-1.2-.1-.1c-.2-.1-.5-.1-.6.1-.2.2-.5.5-.7.6-.4.3-.9.4-1.4.4-.6 0-1.2-.2-1.7-.6-.5-.5-.8-1.2-.9-2 0-.1.1-.2.2-.2h7.1c.3 0 .5-.2.5-.5v-.5c0-.8-.1-1.6-.4-2.4-.2-.6-.6-1.2-1.1-1.7m-2.2 2.9h-3.9c-.1 0-.2-.1-.3-.2 0-.2.1-.4.2-.5.1-.2.3-.5.5-.7.5-.4 1.1-.7 1.7-.6.6 0 1.1.2 1.5.6.3.3.5.8.6 1.2-.1.1-.2.2-.3.2zm11.4-4.2h-1.8c-.1 0-.2-.1-.2-.2v-.8c0-.7.1-1.2.4-1.4.4-.3.8-.4 1.2-.4h.8c.3 0 .5-.2.5-.5v-1.8c0-.3-.2-.5-.5-.5h-1.5c-.8 0-1.5.1-2.2.4-.5.2-1 .5-1.3 1-.3.4-.5.9-.6 1.4-.1.6-.2 1.1-.2 1.7v1.1c0 .1-.1.2-.2.2h-1.5c-.3 0-.5.2-.5.5v1.7c0 .3.2.5.5.5H66c.1 0 .2.1.3.2v8.2c0 .3.2.5.5.5h2.4c.3 0 .5-.2.5-.5v-8.2c0-.1.1-.2.2-.2h1.8c.3 0 .5-.2.5-.5v-1.7c0-.5-.3-.7-.5-.7zm-21.8-5.5c-1.1 0-2 .9-2 2s.9 2 2 2 2-.9 2-2c0-.5-.2-1-.6-1.4-.4-.4-.9-.6-1.4-.6zm1.1 5.5h-2.3c-.3 0-.5.2-.5.5v10.6c0 .3.2.5.5.5H51c.3 0 .5-.2.5-.5V16.9c0-.3-.2-.5-.5-.5zm40.7-.3h-.6c-.7 0-1.3.2-1.9.5-.4.3-.7.6-.9 1v.1l-.1.1c-.1 0-.2-.1-.2-.2v-.7c0-.3-.2-.5-.5-.5H85c-.3 0-.5.2-.5.5v10.7c0 .3.2.5.5.5h2.4c.3 0 .5-.2.5-.5v-4.7c0-.5 0-1 .1-1.5 0-.4.2-.8.4-1.2.2-.3.5-.6.9-.8.4-.2.8-.3 1.2-.3h1.2c.3 0 .5-.2.5-.5v-2c0-.3-.2-.5-.5-.5zm-9.5 1.6c-.4-.5-1-.9-1.6-1.2-.7-.3-1.4-.4-2.1-.4-.8 0-1.6.1-2.4.4-.7.3-1.4.7-2 1.2-.6.5-1 1.1-1.3 1.8-.6 1.7-.6 3.7 0 5.4.3.7.7 1.3 1.3 1.8.6.5 1.2.9 2 1.2.8.3 1.6.4 2.4.4.9 0 1.8-.2 2.6-.6.6-.3 1.2-.7 1.7-1.2.2-.2.2-.5 0-.7l-1.5-1.2H81c-.2-.1-.5-.1-.6.1-.2.2-.5.5-.7.6-.4.3-.9.4-1.4.4-.6 0-1.2-.2-1.7-.6-.5-.5-.8-1.2-.9-2 0-.1.1-.2.2-.2H83c.3 0 .5-.2.5-.5v-.5c0-.8-.1-1.6-.4-2.4-.1-.7-.4-1.3-.9-1.8zm-2.3 2.9H76c-.1 0-.2-.1-.3-.2 0-.2.1-.4.2-.5.1-.2.3-.5.5-.7.2-.2.5-.4.7-.5.3-.1.6-.2 1-.2.6 0 1.1.2 1.5.6.3.3.5.8.5 1.2 0 .2-.1.3-.2.3zm-33.5 4.1h-5.8c-.1 0-.2-.1-.2-.2v-12c0-.3-.2-.5-.5-.5h-2.5c-.3 0-.5.2-.5.5v15c0 .3.2.5.5.5h9c.3 0 .5-.2.5-.5v-2.2c0-.3-.2-.5-.5-.6zm55.1-7.1c-.4-.5-.9-.9-1.5-1.1-.8-.3-1.6-.4-2.4-.4-.9 0-1.8.2-2.6.4-.7.2-1.3.6-1.8 1-.2.2-.2.5 0 .7l1.1 1.1c.2.2.5.2.7 0 .3-.2.5-.4.9-.6.5-.2 1-.4 1.5-.4.6 0 1.1.2 1.5.5.4.3.6.9.6 1.9 0 .1-.1.2-.2.2H98c-.5 0-1.1.1-1.7.1-.5.1-1.1.2-1.6.3-.5.2-.9.4-1.4.7-.4.3-.7.7-.9 1.1-.2.5-.4 1-.4 1.6 0 .5.1 1 .3 1.5.2.4.5.8.9 1.1.4.3.8.5 1.2.6.5.1 1 .2 1.5.2.7 0 1.3-.1 2-.4.5-.2.9-.5 1.2-.9h.2l.1.1v.4c0 .3.2.5.5.5h2.1c.3 0 .5-.2.5-.5v-5.1c0-1-.1-2-.2-3.1-.1-.4-.4-1-.8-1.5m-2.1 6.3c0 .6-.3 1.2-.8 1.5-.2.2-.5.3-.8.4-.3.1-.6.1-1 .1s-.8-.1-1.1-.3c-.3-.2-.5-.5-.5-.9 0-.3.1-.7.4-.9.3-.2.6-.4.9-.5.4-.1.7-.2 1.1-.2h1.6c.1 0 .2.1.2.2v.6zm14.2-6.4c-.3-.5-.7-.9-1.2-1.1-.7-.3-1.4-.4-2.1-.4-.4 0-.8.1-1.1.2-.3.1-.6.2-.9.4-.3.2-.5.3-.7.6-.1.1-.1.2-.2.2l-.1.1c-.1 0-.2-.1-.2-.2v-.4c0-.3-.2-.5-.5-.5h-2.2c-.3 0-.5.2-.5.5v10.7c0 .3.2.5.5.5h2.4c.3 0 .5-.2.5-.5v-5.7c0-.3 0-.7.1-1 0-.3.2-.6.3-.9.1-.3.4-.5.6-.6.3-.2.7-.2 1.1-.2.7-.1 1.3.3 1.5 1 .1.3.2.6.2 1v6.6c0 .3.2.5.5.5h2.4c.3 0 .5-.2.5-.5v-6.3c0-.7-.1-1.4-.2-2.1-.2-.7-.4-1.3-.7-1.9m13.2-6.6h-2.4c-.3 0-.5.2-.5.5v5.7c0 .1-.1.2-.2.2s-.1 0-.1-.1l-.1-.1c-.3-.3-.7-.5-1.1-.7-.6-.2-1.3-.3-2-.3s-1.5.2-2.1.5c-.6.3-1.1.8-1.6 1.3-.4.6-.8 1.2-1 1.9-.5 1.7-.5 3.5 0 5.1.2.7.6 1.3 1.1 1.8.5.5 1.1.9 1.7 1.2.7.3 1.5.4 2.2.4.4 0 .7-.1 1.1-.2.3-.1.7-.2 1-.4.3-.2.5-.3.8-.5l.2-.2.1-.1.1-.1c.1 0 .2.1.2.2v.5c0 .3.2.5.5.5h2.1c.3 0 .5-.2.5-.5v-16c0-.3-.2-.6-.5-.6m-3.3 13.6c-1.1 1-2.9 1-4 0-.5-.5-.7-1.5-.7-2.4 0-.8.2-1.8.7-2.3 1.1-1 2.9-1 4 0 .5.5.7 1.5.7 2.3s-.3 1.9-.7 2.4zm15-6.6c-.6-.5-1.2-.9-1.9-1.2-1.5-.5-3.2-.5-4.8 0-.7.3-1.4.7-1.9 1.2s-1 1.1-1.3 1.8c-.6 1.7-.6 3.7 0 5.4.3.7.7 1.3 1.3 1.8.6.5 1.2.9 1.9 1.2 1.5.5 3.2.5 4.8 0 .7-.3 1.4-.7 1.9-1.2s1-1.1 1.3-1.8c.6-1.7.6-3.7 0-5.4-.3-.7-.8-1.3-1.3-1.8zm-2.3 6.8c-1.1 1-2.9 1-4 0-.5-.5-.7-1.5-.7-2.3 0-.8.2-1.8.7-2.3 1.1-1 2.9-1 4 0 .5.5.7 1.5.7 2.3 0 .8-.3 1.8-.7 2.3zM31 15.5c-.1-.3-1.4-2.7-4-5.9-.1-.1-.1-.2-.1-.3-.2-1.8-.4-3.6-.8-5.4-.1-.4-.4-.6-.8-.7l-2.6-.3h-.1c-.3 0-.5.2-.5.5v.9c-1.6-1.5-3.4-2.8-5.3-4-.4-.1-.8-.3-1.3-.3s-.9.1-1.3.4C5.3 6 .3 15 .1 15.5c0 .1-.1.2-.1.4 0 .4.3.8.7.9l2.6.5c.3.1.6.4.6.8 0 .5.5 10.7 1.1 13.3.2.3.5.6.9.6 1.5 0 2.9-.1 4.4-.1h.1c.2 0 .3-.1.3-.3-.1-.9-.2-2.9-.3-5.1v-.2c0-.2-.1-.3-.3-.4-.8-.5-1.3-1.3-1.4-2.2-.1-3.6-.2-7.7 0-11 0-.3.2-.5.5-.5s.5.2.5.5c-.1 2.2-.1 4.7-.1 7.2 0 .3.3.6.6.6s.6-.3.6-.6c0-2.5 0-5.1.1-7.3 0-.3.2-.5.5-.5s.5.2.5.5c.1 2.3.1 4.9.1 7.4 0 .3.3.6.6.6s.6-.3.6-.6c0-2.5 0-5.1.1-7.2 0-.3.3-.5.5-.5.3 0 .5.2.5.5-.2 3.1-.1 7.1 0 10.6v.1c0 .9-.5 1.8-1.2 2.3-.1.1-.2.2-.2.4 0 0-.1.5.2 3.1.1 1.1.2 1.9.2 2.3 0 .1.1.2.3.2H19c.1 0 .3-.1.3-.2.3-3.1.4-4.9.4-4.9 0-.2-.1-.3-.3-.3l-1.8-.2c-.2 0-.4-.2-.5-.4v-.3c.7-10.4 4.2-13.9 4.2-13.9.1-.1.1-.1.2-.1.2-.2.6-.1.8.1l.1.1v.2c.3 3.3.2 8.8 0 13.2-.2 3.7-.3 6.6-.3 6.6 0 .1.1.2.2.2 1 0 1.9 0 2.9.1.4 0 .8-.3.9-.7.6-2.7 1.1-12.9 1.1-13.3 0-.4.3-.7.6-.8l2.6-.5c.5-.1.8-.6.6-1.1v-.1z"/>
</svg>
